Coordinates
version=1
nRows=26
nColumns=24
inDegrees=yes

Units are S.I. units (second, meters, Newtons, ...)
Angles are in degrees.

endheader
time	pelvis_tilt	pelvis_list	pelvis_rotation	pelvis_tx	pelvis_ty	pelvis_tz	hip_flexion_r	hip_adduction_r	hip_rotation_r	knee_angle_r	ankle_angle_r	subtalar_angle_r	mtp_angle_r	hip_flexion_l	hip_adduction_l	hip_rotation_l	knee_angle_l	ankle_angle_l	subtalar_angle_l	mtp_angle_l	lumbar_extension	lumbar_bending	lumbar_rotation
      4.50000000	    -17.11093574	     -8.42778396	      5.23343352	      2.89600728	     -0.02948517	     -0.45789906	     36.24788012	      7.95430671	     -6.61166013	    -19.56257543	     -8.26077212	     -0.82100652	      8.10891609	      9.37752936	    -11.68637711	    -13.29311116	    -41.27019618	    -35.34753806	     32.11634399	     31.74838909	     16.68628012	      9.04384474	     -6.70275486
      4.50500000	    -17.19555232	     -8.65336792	      5.31739691	      2.90187828	     -0.02896613	     -0.45788881	     35.86493336	      8.17819205	     -6.74911609	    -19.31401353	     -7.93522135	     -0.73048033	      8.25027314	     10.42983172	    -12.06119620	    -12.84759500	    -42.88737999	    -35.63493430	     30.85477323	     31.54694179	     16.79434737	      9.23406479	     -6.73657565
      4.51000000	    -17.20082080	     -8.87999757	      5.34912216	      2.90775903	     -0.02834134	     -0.45779465	     35.37270769	      8.45532492	     -6.84734548	    -19.01439502	     -7.67278111	     -0.67989553	      8.41427237	     11.38182485	    -12.45072089	    -12.49338725	    -44.49037470	    -35.62412817	     29.49883152	     31.25808037	     16.80790852	      9.45064750	     -6.69414521
      4.51500000	    -17.12731219	     -9.09861778	      5.37843508	      2.91370435	     -0.02757121	     -0.45768492	     34.75532921	      8.75474325	     -6.87611220	    -18.64695425	     -7.44020428	     -0.69579633	      8.50337149	     12.23555918	    -12.82539693	    -12.15781918	    -46.03560004	    -35.39852513	     28.02650012	     30.98569306	     16.74753564	      9.66583283	     -6.62018065
      4.52000000	    -17.12647075	     -9.26495846	      5.41559278	      2.91956843	     -0.02688772	     -0.45762852	     34.23140519	      8.96494641	     -6.99846064	    -18.31311607	     -7.18417694	     -0.55424227	      8.76323049	     13.18910356	    -13.10631755	    -11.79406600	    -47.59339995	    -34.82850926	     26.51677789	     30.53247888	     16.75811007	      9.81571046	     -6.58061824
      4.52500000	    -17.00490663	     -9.45115079	      5.40059330	      2.92557118	     -0.02602101	     -0.45743526	     33.53450175	      9.27285967	     -6.99516490	    -17.90811178	     -6.98262693	     -0.55868616	      8.83944893	     13.96151889	    -13.45051611	    -11.55797483	    -49.03759212	    -34.18178700	     24.96727786	     30.32997433	     16.64951594	     10.01146074	     -6.45238447
      4.53000000	    -16.92463660	     -9.51628277	      5.47088127	      2.93144268	     -0.02507782	     -0.45743933	     32.87427185	      9.39271396	     -7.02704738	    -17.50443388	     -6.77420336	     -0.45810235	      9.02562851	     14.80894610	    -13.57318910	    -11.18054430	    -50.44258207	    -33.32662790	     23.33104194	     29.79127790	     16.57497203	     10.05603017	     -6.35305808
      4.53500000	    -16.82655965	     -9.57966326	      5.47211694	      2.93736730	     -0.02415958	     -0.45729100	     32.19828693	      9.55522184	     -7.04764487	    -17.11739709	     -6.55418421	     -0.33661675	      9.25379026	     15.60259929	    -13.73837983	    -10.94583317	    -51.79846131	    -32.29672615	     21.81722091	     29.24996443	     16.48052303	     10.10998595	     -6.22555145
      4.54000000	    -16.72996620	     -9.62051292	      5.43352399	      2.94328196	     -0.02318545	     -0.45715506	     31.50851886	      9.70540435	     -7.04357311	    -16.70250601	     -6.40438194	     -0.12733939	      9.57619190	     16.37854314	    -13.87691047	    -10.74921776	    -53.09674297	    -31.13672225	     20.45923781	     28.53736494	     16.37973165	     10.16406931	     -6.02657298
      4.54500000	    -16.58969645	     -9.61503079	      5.42033599	      2.94925594	     -0.02211820	     -0.45697819	     30.74540871	      9.82850315	     -6.96897139	    -16.26193010	     -6.23778440	     -0.08669810	      9.70921358	     17.07713638	    -13.96343893	    -10.58274326	    -54.25068555	    -30.10905142	     19.01879191	     28.15536553	     16.24381253	     10.15617537	     -5.80980031
      4.55000000	    -16.46135228	     -9.57842825	      5.35092743	      2.95518235	     -0.02105902	     -0.45678525	     29.99518591	      9.93182677	     -6.85706753	    -15.82951748	     -6.08752253	      0.09871047	      9.93405074	     17.76830244	    -14.02739829	    -10.48006525	    -55.37041026	    -28.95439903	     17.81065207	     27.48575353	     16.10360440	     10.13871330	     -5.55463726
      4.55500000	    -16.32733296	     -9.55482534	      5.28816765	      2.96119500	     -0.01998773	     -0.45653125	     29.21749181	     10.06368642	     -6.73257193	    -15.36318847	     -5.95450241	      0.14052744	      9.97840326	     18.43147810	    -14.11601972	    -10.39915352	    -56.35256180	    -28.00933501	     16.59045329	     27.29257679	     15.97996592	     10.12364669	     -5.25436009
      4.56000000	    -16.17702243	     -9.40456988	      5.21253368	      2.96699889	     -0.01886452	     -0.45627783	     28.43809176	     10.07388786	     -6.50354895	    -14.94417721	     -5.81107656	      0.19175903	     10.04861902	     19.05460105	    -14.04780090	    -10.34598445	    -57.27654075	    -26.99730385	     15.49816800	     26.79028492	     15.78780493	      9.98125168	     -4.96777114
      4.56500000	    -16.03749606	     -9.28566065	      5.09700369	      2.97302332	     -0.01778312	     -0.45600376	     27.62684365	     10.13412598	     -6.22969665	    -14.46341474	     -5.67421666	      0.23755454	     10.09712389	     19.64585760	    -14.03898713	    -10.35001265	    -58.11460892	    -25.98705836	     14.64162447	     26.30947844	     15.65282709	      9.88422265	     -4.65192827
      4.57000000	    -15.91587982	     -9.18350071	      4.99070057	      2.97895931	     -0.01676331	     -0.45569649	     26.85328395	     10.20401722	     -6.00406688	    -14.00047806	     -5.55082818	      0.23959877	     10.08143901	     20.26699283	    -14.04570868	    -10.33841329	    -58.86555523	    -25.17030610	     13.79890139	     26.23235795	     15.53044045	      9.79505817	     -4.31366636
      4.57500000	    -15.75614216	     -8.97730041	      4.85895114	      2.98480661	     -0.01568394	     -0.45534879	     26.02975880	     10.19294536	     -5.59604082	    -13.54729736	     -5.41155695	      0.14560687	     10.01288591	     20.80265916	    -13.93579006	    -10.36760857	    -59.53367755	    -24.33113658	     13.12685611	     25.98081864	     15.33606459	      9.60593366	     -3.95111719
      4.58000000	    -15.62908829	     -8.81024694	      4.72608079	      2.99067102	     -0.01466575	     -0.45503505	     25.24090745	     10.20504859	     -5.26560604	    -13.07786777	     -5.32031372	      0.08647999	      9.92762997	     21.37165191	    -13.85971950	    -10.38412557	    -60.12583941	    -23.57363679	     12.52051377	     25.96505941	     15.19462693	      9.45719872	     -3.59544264
      4.58500000	    -15.48387514	     -8.59853878	      4.57529257	      2.99656051	     -0.01365531	     -0.45465665	     24.42088250	     10.18676158	     -4.84112959	    -12.60761806	     -5.19278246	     -0.04009696	      9.80220621	     21.88531158	    -13.74147694	    -10.42852216	    -60.63205370	    -22.84320526	     12.06733421	     26.00190231	     15.03388706	      9.26199501	     -3.21881649
      4.59000000	    -15.33849677	     -8.38006794	      4.41480072	      3.00245392	     -0.01265414	     -0.45426467	     23.59599499	     10.15966830	     -4.41208781	    -12.12868641	     -5.09280629	     -0.17691072	      9.62303155	     22.37700061	    -13.61252608	    -10.47786179	    -61.05633929	    -22.12811119	     11.73499670	     26.15464945	     14.87910101	      9.06099353	     -2.85237117
      4.59500000	    -15.23088712	     -8.12117151	      4.26243143	      3.00826089	     -0.01170808	     -0.45390638	     22.82985469	     10.06733307	     -4.03256438	    -11.67784418	     -4.97999561	     -0.25769752	      9.52989384	     22.90628500	    -13.41252443	    -10.51779201	    -61.41443258	    -21.46901219	     11.39485372	     26.35566694	     14.75613420	      8.81266885	     -2.48290316
      4.60000000	    -15.10300755	     -7.85547876	      4.09162124	      3.01406040	     -0.01077079	     -0.45349520	     22.03960058	      9.97491379	     -3.62232789	    -11.22145936	     -4.88079747	     -0.37081614	      9.43164267	     23.39041216	    -13.21355965	    -10.57229569	    -61.69827239	    -20.80092457	     11.20360219	     26.63889346	     14.61108680	      8.56103847	     -2.09575520
      4.60500000	    -14.96869260	     -7.59469900	      3.91687248	      3.01983863	     -0.00986654	     -0.45307673	     21.24360817	      9.88157246	     -3.21001728	    -10.76098864	     -4.78352774	     -0.48490019	      9.33665911	     23.85990378	    -13.01821962	    -10.63454228	    -61.92243175	    -20.14590963	     11.04479770	     26.95745763	     14.46297912	      8.31486005	     -1.71586779
      4.61000000	    -14.85595992	     -7.30377890	      3.73626294	      3.02556865	     -0.00900162	     -0.45264778	     20.48355980	      9.74557478	     -2.82711264	    -10.31988172	     -4.68573189	     -0.56361391	      9.27858535	     24.33674504	    -12.77896773	    -10.70169699	    -62.07735903	    -19.48938593	     10.94047404	     27.27938685	     14.33453409	      8.03423214	     -1.33532198
      4.61500000	    -14.74582503	     -7.00228510	      3.54665636	      3.03125985	     -0.00817243	     -0.45220355	     19.73384915	      9.59271337	     -2.44804624	     -9.88589636	     -4.59257644	     -0.63703335	      9.24684026	     24.80384050	    -12.52595514	    -10.78079870	    -62.17073752	    -18.83537236	     10.86700859	     27.59120925	     14.20726520	      7.74292235	     -0.95216137
      4.62000000	    -14.65950192	     -6.68468017	      3.35703320	      3.03689002	     -0.00740218	     -0.45174427	     19.02943006	      9.41195663	     -2.11727432	     -9.47827117	     -4.49837946	     -0.68881624	      9.23561232	     25.28981823	    -12.24484783	    -10.85731404	    -62.20675780	    -18.17816579	     10.81546624	     27.86861130	     14.10144206	      7.42920683	     -0.57188784
      4.62500000	    -14.52696901	     -6.37936273	      3.13754551	      3.04254501	     -0.00663335	     -0.45125317	     18.25925544	      9.25243302	     -1.69010627	     -9.04119593	     -4.42066717	     -0.79466062	      9.22880003	     25.70205571	    -12.00156940	    -10.98667910	    -62.18240708	    -17.54395603	     10.75190657	     28.12624352	     13.95401569	      7.14044404	     -0.18755241
